<svg xmlns="http://www.w3.org/2000/svg" xmlns:xlink="http://www.w3.org/1999/xlink" id="Capa_1" x="0px" y="0px" viewBox="0 0 1736 409" style="enable-background:new 0 0 1736 409;" xml:space="preserve"><style type="text/css">	.st0{fill:#203E7A;}	.st1{fill:#164387;}	.st2{fill-rule:evenodd;clip-rule:evenodd;fill:#F9BD22;}	.st3{fill:#F9BD22;}	.st4{fill:#FABD1C;}	.st5{fill:#FFFFFF;}</style><g>	<path class="st0" d="M1721.65,276.58c0.61-7.5-1.23-16.24-5.48-26.12c-0.56-1.73-1.25-3.51-2.05-5.35  c1.73-24.04-43.82-81.69-52.96-92.99l17.38-52.73l-90.65,43.47l-90.04-56.53c0,0-17.96,51.43-23.35,72.99l4.75-7.17l-5.36,11.78  c1.95,11.31,8.23,20.76,16.55,28.57l19.98-15.82l-17.44,18.11c7.64,6.58,16.67,11.92,25.51,16.15l23.87-9.2l-20.23,10.89  c18.59,8.34,35.38,11.81,35.38,11.81l23.95-64.32L1561.37,225l3.51-0.31c7.97-3.43,71.76-43.68,87.84-55.63  c3.03-2.32,5.95-9.4,5.95-9.4l0.2-0.61c10.8,13.61,27.99,36.89,38.95,56.64c-2.57-0.48-5.96-0.77-6.63-0.76  c-1.1,0.02-1.29,2.88-1.97,2.02c-32.79-41.15-19.67-22.92-11.95-9.45c2.53,4.42,8.12,10.58,1.41,13.07  c-5.99,2.23-11.48,4.17-15.39,8.23c-2.99,3.11-12.62,15.21-12.61,16.17l0.02,1.49c0.01,0.44,0.54,0.65,0.84,0.34  c1.19-1.25,3.26-3.42,3.24-3.32c0.02-0.06,14.68-11.95,20.42-12.67c1.66-0.21,27.12-2.27,29.22-1.78  c3.09,7.36,4.51,13.52,3.3,17.46c-0.55,1.78-1.65,2.83-3.59,3.4c-1.62,0.48-2.54,2.18-2.06,3.8c0.39,1.33,1.61,2.19,2.93,2.19  c0.29,0,0.58-0.04,0.87-0.13c1.9-0.56,3.5-1.47,4.78-2.68c1.36,3.18,2.44,6.2,3.25,9.07c-0.07,2.51-0.59,4.76-1.56,6.74  c-2.87,5.84-8.92,7.31-8.99,7.32c-1.14,0.26-1.85,1.39-1.6,2.53c0.22,0.99,1.1,1.66,2.07,1.66c0.15,0,0.31-0.02,0.46-0.05  c0.31-0.07,7.39-1.74,11.33-8.63c0.01,0.18,0.02,0.36,0.03,0.54c-0.34,0.57-0.51,1.24-0.41,1.95c0.1,0.75,0.2,1.58,0.29,2.46  c-0.29,2.8-0.98,5.36-2.11,7.66c-4.14,8.42-12.88,10.55-12.96,10.57c-1.64,0.37-2.67,2-2.3,3.65c0.32,1.42,1.58,2.39,2.98,2.39  c0.22,0,0.45-0.03,0.67-0.08c0.41-0.09,8.88-2.08,14.68-9.88c0.45,15.91-1.01,35.78-9.19,42.02c-1.08,0.82-1.49,2.27-0.99,3.54  c4.59,11.82,1.85,20.8-8.62,28.26c-0.42,0.3-0.76,0.7-0.98,1.16c-0.24,0.49-5.47,10.98-15.37,10.67  c14.09-17.33,13.96-41.38,13.94-42.72c-0.02-1.67-1.39-3.01-3.05-3.01c-0.01,0-0.03,0-0.04,0c-1.69,0.02-3.04,1.41-3.02,3.1  c0,0.4,0.15,39.73-29.42,50.95c-0.49,0.19-0.89,0.49-1.21,0.86c-6.13,1.96-13.22,3.22-20.17,2.34c-6.47-0.81-11.99-3.44-16.47-7.84  c5.55-5.22,9.78-13.74,11.52-26.9c-1.5,2.81-3.38,5.16-5.54,7.13c13.68-18.76,16.17-29.24,9.58-40.52  c3.94,0.37,7.54,0.09,10.73-1.05c-15.38-3.35-18.23-19,0.1-45.89c-15.89,0-41.56,56.22-25.67,17.11  c-17.82,22.18-24.8,13.5-16.9,2.63c-7.26,6.87-21.39,4.97-28.48,3.46c-0.67-0.21-1.35-0.42-2.02-0.63  c-7.43-2.69-13.29-4.5-13.29-4.5s0.66,0.31,1.73,0.9c-7.74-2.41-15.31-4.78-22.21-6.95c8.47,1.48,16.29,3.15,21.55,4.26  c-14.88-6.03-16.94-25.45,9.94-24.97l72.28-1.89l-81.35-10.55c-7.77-1.42-18.79-9.42-15.07-16.86l-86.73,20.48l116.89,3.91  l-119.42,6.19l70.93,42.66l-8.34-3.7c1.29,0.6,2.29,1.16,2.9,1.66c13.37,22.07,17.68,5.81,8.86-8.16  c-2.68-4.58-3.42-7.79-0.97-9.32c12.89,4.08,29.2,9.16,44.75,13.99c5.1,5.67,8.6,13.09,4.88,21.57c2.18,7.17,5.36,3.52,7.03-5.3  c0.9-4.77,0.78-9.32,1.64-12.07c13.12,4.06,24.66,7.62,31.69,9.79c0.11,6.71-0.95,16.83-5.61,30.56  c-5.06,14.9-6.6,19.83-6.95,21.21c-14.49,2.66-31.1-0.63-39.87-2.89c0.19-0.05,0.33-0.09,0.4-0.11c1.63-0.44,2.59-2.12,2.14-3.75  c-0.44-1.63-2.13-2.59-3.75-2.15c-0.2,0.05-9.74,2.58-21.55,3.22c-5.61-2.09-10.94-5.22-14.51-7.55  c5.43-0.33,10.95-1.72,16.43-4.52c1.5-0.77,2.1-2.61,1.33-4.11c-0.77-1.5-2.61-2.1-4.11-1.33c-23.34,11.92-48.8-6.61-61.69-18.45  c6.68-0.08,17.13-0.36,25.08-1.23l-28.09-19.15c-3.38-1.41-6.75-2.96-10.02-4.65c0.32-0.52,0.7-0.99,1.09-1.43l-20.54-14l2.2,3.44  c-0.36,1.85-0.94,4.37-1.07,7.32l10,20.89c2.78,2.35,6.27,4.68,10.69,6.93c3.49,3.75,10.34,10.56,19.21,16.79  c0.93,4.33,4.6,15.67,17.58,19.88c0.35,0.11,0.66,0.22,1,0.32c8.88,5.5,20.09,7.16,30.33,7.16c2.29,0,4.53-0.08,6.69-0.22  c5.49,1.37,10.72,2.21,14.18,1.95c1.07,1.11,2.48,2.36,4.34,3.73c3.37,2.88,8.06,6.3,14.68,8.17c10.57,4.48,23.9,6.99,34.39,1.14  c5.54,5.76,12.46,9.21,20.69,10.24c1.81,0.23,3.62,0.33,5.42,0.33c15.89,0,30.84-8.18,35.85-12c11.79,1.7,19.92-7.41,22.99-13.23  c11.66-8.6,15.32-19.69,10.88-32.98C1725.45,323.51,1722.87,288.09,1721.65,276.58z M1498.71,132.69l25.19-11.03l24.2,14.75  l-26.61,11.15L1498.71,132.69z M1532.62,154.93l-5.82-3.89l25.19-11.03l7.24,3.77L1532.62,154.93z M1616.36,166.56  c-4.68-4.98-2.23-5.7-2.23-5.7s8.04-24.76,17.05-24.29C1631.18,136.57,1622.41,146.09,1616.36,166.56z M1610.5,368.48  c0.05-0.11,0.08-0.2,0.08-0.2s0.02,0.07,0.05,0.17C1610.59,368.47,1610.54,368.48,1610.5,368.48z"></path>	<path class="st0" d="M1549.7,233.59c1.22-1.56,3.14-3.07,5.97-4.47l0.22-0.72c-0.68-0.15-1.78-0.4-3.25-0.77  c-4.61-1.16-11.94-3.21-20.37-6.31l-4.99,0.72c-3.59,0.52-6.03-2.29-6.13-5.22c-1.22-0.54-2.45-1.11-3.68-1.69l-58.5,31.49  L1549.7,233.59z"></path>	<path class="st0" d="M1439.55,151.96l-7.87,72.04l38.49-58.16c-0.35-1.07-0.6-1.94-0.67-2.47l-0.11-0.75l0.16-0.74  c0.74-3.44,1.99-8.12,3.55-13.45l-33.79,51.05l8.33-94.67l-22.61,84.99l-1.85,12.52l1.04,2.92L1439.55,151.96z"></path>	<path class="st0" d="M1479.05,296.55c4.52-1.74,9.62-1.91,12.1-1.87c9.19,2.49,22.54,6.31,29.64,9.34l-66-29.3L1479.05,296.55z"></path>	<path class="st0" d="M1521.1,321.59c-1.82-2.7-12.46-5.53-25.26-9.93l15.41,13.87C1517.83,324.75,1522.4,323.52,1521.1,321.59z"></path>	<path class="st0" d="M1453.18,236.11l59.97-23.12c-8.06-4.12-16.08-9.17-23.04-15.23L1453.18,236.11z"></path>	<path class="st0" d="M1480.01,187.17l-1.71-2.02l-1.97-3.06c-0.6-1.76-3.1-7.86-4.91-12.73l-27.2,59.74l42.95-34.01  C1484.57,192.6,1482.16,189.97,1480.01,187.17z"></path>	<path class="st0" d="M1580.12,220.89l33.33-11.22l-19.56,2.81C1588.83,215.61,1584.19,218.45,1580.12,220.89z"></path>	<path class="st0" d="M1636.62,114.91c0,0-0.05,0-0.13,0.01c41.98-20.76,44.71-23.4,44.71-23.4s-70.12-12.34-120.95-72.29  l-38.64,33.1c0-0.01,0-0.02,0-0.03c-0.24,0.21-0.47,0.42-0.7,0.63l-0.05,0.04c0,0,0,0,0,0c-6.35,5.72-9.93,9.85-9.93,9.85  l-7.81,19.37l84.23,56.06L1636.62,114.91z"></path>	<path class="st0" d="M1679.05,87.96c3-21.5-6.57-35.36-39.5-54.08c-33.14-18.83-49.24-16.81-73-15.74  C1566.55,18.15,1591.93,61.31,1679.05,87.96z"></path>	<path class="st0" d="M1563.98,346.3c3.55-1.48,15.56-19.78,12-31.06c-3.55-11.27-8.95-6.67-7.98-0.94c0,0,5.18,16.88-7.11,28.34  C1559.35,346.71,1560.42,347.78,1563.98,346.3z"></path>	<g>		<polygon class="st1" points="21.09,384.58 26.87,384.58 26.87,371.06 40.28,371.06 40.28,366.75 26.87,366.75 26.87,357.95    41.4,357.95 41.4,353.59 21.09,353.59   "></polygon>		<path class="st1" d="M80.32,353.59l-12.6,30.99h5.97l3.69-9.39h11.86l3.8,9.39h6.13l-12.6-30.99H80.32z M84.66,363.23l3.22,7.82   h-9.1l3.18-7.87c0.52-1.29,0.93-2.58,1.32-3.85C83.67,360.57,84.1,361.85,84.66,363.23z"></path>		<path class="st1" d="M148.25,367.92c3.08-1.37,4.93-3.78,4.93-6.55c0-2.42-1.13-4.41-3.26-5.73c-2.25-1.57-5.35-2.27-10.04-2.27   c-3.15,0-6.41,0.26-8.51,0.67l-0.45,0.09v30.3l0.5,0.06c1.15,0.13,3.62,0.36,7.2,0.36c5.99,0,10.11-0.95,12.59-2.91   c2.15-1.65,3.29-3.88,3.29-6.43C154.51,371.41,151.41,368.97,148.25,367.92z M140.26,366.26h-3.61v-8.61   c0.9-0.12,2.08-0.19,3.5-0.19c4.78,0,7.2,1.45,7.2,4.31C147.35,364.45,144.5,366.26,140.26,366.26z M139.94,380.7   c-1.45,0-2.49-0.04-3.29-0.12v-10.32h3.23c2.02,0,8.63,0.37,8.63,5.2C148.52,380.02,143.15,380.7,139.94,380.7z"></path>		<path class="st1" d="M209.03,375.67c-0.78-2.88-2.21-4.86-4.27-5.91c3.65-1.45,5.78-4.25,5.78-7.68c0-2.45-1.1-4.7-3.03-6.17   c-2.3-1.74-5.68-2.55-10.64-2.55c-2.95,0-6.36,0.24-8.89,0.63l-0.48,0.07v30.51h5.73v-12.94l3.74,0c3.92,0.13,5.67,1.53,6.66,5.38   c1.04,4.09,1.81,6.41,2.4,7.31l0.17,0.25h6.09l-0.56-0.87C211.01,382.63,210.16,379.69,209.03,375.67z M204.81,362.48   c0,3.1-2.93,5.11-7.46,5.11h-4.13v-9.87c0.63-0.1,1.85-0.22,3.96-0.22C200.66,357.51,204.81,358.37,204.81,362.48z"></path>		<rect x="243.78" y="353.59" class="st1" width="5.78" height="30.99"></rect>		<path class="st1" d="M301.58,357.46c2.58,0,5.09,0.44,6.9,1.2l0.54,0.23l1.56-4.2l-0.49-0.21c-0.73-0.32-3.53-1.38-8.68-1.38   c-11.45,0-19.15,6.53-19.15,16.25c0,9.55,7.1,15.72,18.09,15.72c4.61,0,8.06-0.79,9.63-1.46l0.46-0.2l-1.21-4.18l-0.58,0.24   c-1.81,0.74-4.63,1.2-7.34,1.2c-8.17,0-13.05-4.28-13.05-11.44C288.25,361.85,293.23,357.46,301.58,357.46z"></path>		<path class="st1" d="M352.78,353.59l-12.6,30.99h5.97l3.7-9.39h11.86l3.8,9.39h6.13l-12.61-30.99H352.78z M357.12,363.23   l3.22,7.82h-9.09l3.17-7.86c0.53-1.29,0.94-2.59,1.33-3.86C356.14,360.56,356.57,361.85,357.12,363.23z"></path>		<path class="st1" d="M419.81,357.46c3.52,0,5.84,0.75,6.91,1.2l0.54,0.23l1.54-4.2l-0.48-0.21c-0.73-0.32-3.52-1.38-8.67-1.38   c-11.46,0-19.16,6.53-19.16,16.25c0,9.55,7.11,15.72,18.1,15.72c4.61,0,8.06-0.79,9.63-1.46l0.46-0.2l-1.22-4.18l-0.58,0.24   c-1.81,0.74-4.62,1.2-7.33,1.2c-8.18,0-13.06-4.28-13.06-11.44C406.48,361.85,411.46,357.46,419.81,357.46z"></path>		<rect x="461.12" y="353.59" class="st1" width="5.78" height="30.99"></rect>		<path class="st1" d="M516.65,353.06c-10.03,0-17.04,6.68-17.04,16.25c0,9.28,6.81,15.76,16.56,15.76c10.23,0,17.1-6.55,17.1-16.3   C533.26,359.37,526.59,353.06,516.65,353.06z M527.28,368.95c0,5.9-3.35,11.85-10.85,11.85c-7.44,0-10.83-6-10.83-11.58   c0-5.92,3.37-11.89,10.89-11.89C523.9,357.33,527.28,363.35,527.28,368.95z"></path>		<path class="st1" d="M588.43,366.65c0,3.72,0.06,6.84,0.32,10.07c-1.35-2.28-3.04-4.77-5.27-7.79l-11.51-15.34h-5.93v30.99h5.46   v-13.32c0-4.03-0.03-7.17-0.19-10.28c1.39,2.34,3.18,4.95,5.62,8.22l11.47,15.38h5.49v-30.99h-5.45V366.65z"></path>		<polygon class="st1" points="634.45,370.58 648.23,370.58 648.23,366.26 634.45,366.26 634.45,357.95 649.08,357.95    649.08,353.59 628.67,353.59 628.67,384.58 649.87,384.58 649.87,380.21 634.45,380.21   "></polygon>		<path class="st1" d="M694.05,366.55c-5.06-1.64-6.69-2.91-6.69-5.22c0-1.95,1.9-3.91,6.14-3.91c3.55,0,5.83,1.04,6.44,1.35   l0.55,0.29l1.69-4.21l-0.47-0.23c-0.93-0.46-3.57-1.52-8.07-1.52c-7.11,0-12.07,3.57-12.07,8.67c0,4.13,3.11,7.01,9.8,9.05   c5.25,1.64,6.31,3.27,6.31,5.35c0,2.8-2.64,4.53-6.88,4.53c-2.81,0-5.69-0.69-7.91-1.88l-0.57-0.31l-1.63,4.29l0.42,0.24   c2.09,1.17,6.03,2.02,9.36,2.02c9.58,0,12.98-4.96,12.98-9.21C703.47,371.47,700.65,368.69,694.05,366.55z"></path>		<rect x="775.66" y="353.59" class="st1" width="5.78" height="30.99"></rect>		<path class="st1" d="M838.65,366.65c0,3.72,0.06,6.84,0.32,10.07c-1.35-2.28-3.04-4.77-5.27-7.79l-11.51-15.34h-5.93v30.99h5.46   v-13.32c0-4.03-0.03-7.17-0.19-10.28c1.39,2.34,3.18,4.95,5.62,8.22l11.47,15.38h5.49v-30.99h-5.45V366.65z"></path>		<path class="st1" d="M904.03,357.2c-3.31-2.55-8.28-3.84-14.76-3.84c-3.41,0-6.72,0.23-9.85,0.67l-0.48,0.07v30.33l0.51,0.05   c2.5,0.24,5.25,0.36,8.4,0.36c7.07,0,12.65-1.53,16.15-4.43c3.48-2.92,5.32-7.08,5.32-12.04   C909.32,363.62,907.54,359.86,904.03,357.2z M903.33,368.51c0,7.81-5.18,12.11-14.58,12.11c-1.73,0-3.1-0.04-4.09-0.13v-22.63   c1.02-0.16,2.59-0.31,4.82-0.31c5.04,0,8.79,1.2,11.14,3.57C902.45,362.95,903.36,365.44,903.33,368.51z"></path>		<path class="st1" d="M963.6,371.87c0,5.84-2.8,8.92-8.09,8.92c-4.98,0-7.72-3.17-7.72-8.92v-18.29H942v18.16   c0,8.59,4.74,13.32,13.35,13.32c8.91,0,14.03-4.91,14.03-13.46v-18.02h-5.78V371.87z"></path>		<path class="st1" d="M1015.57,366.55c-5.06-1.64-6.69-2.91-6.69-5.22c0-1.95,1.9-3.91,6.14-3.91c3.55,0,5.83,1.04,6.44,1.35   l0.55,0.29l1.69-4.21l-0.47-0.23c-0.93-0.46-3.57-1.52-8.07-1.52c-7.11,0-12.07,3.57-12.07,8.67c0,4.13,3.11,7.01,9.8,9.05   c5.25,1.64,6.31,3.27,6.31,5.35c0,2.8-2.64,4.53-6.88,4.53c-2.81,0-5.69-0.69-7.91-1.88l-0.57-0.31l-1.63,4.29l0.42,0.24   c2.09,1.17,6.03,2.02,9.36,2.02c9.58,0,12.98-4.96,12.98-9.21C1024.99,371.47,1022.17,368.69,1015.57,366.55z"></path>		<polygon class="st1" points="1054.06,357.99 1064.88,357.99 1064.88,384.58 1070.66,384.58 1070.66,357.99 1081.54,357.99    1081.54,353.59 1054.06,353.59   "></polygon>		<path class="st1" d="M1133.84,375.67c-0.78-2.88-2.21-4.86-4.27-5.91c3.65-1.45,5.78-4.25,5.78-7.68c0-2.45-1.1-4.7-3.03-6.17   c-2.3-1.74-5.68-2.55-10.64-2.55c-2.95,0-6.36,0.24-8.89,0.63l-0.48,0.07v30.51h5.73v-12.94l3.74,0c3.92,0.13,5.67,1.53,6.66,5.38   c1.04,4.09,1.81,6.41,2.4,7.31l0.17,0.25h6.09l-0.56-0.87C1135.83,382.63,1134.97,379.69,1133.84,375.67z M1129.62,362.48   c0,3.1-2.93,5.11-7.46,5.11h-4.13v-9.87c0.63-0.1,1.85-0.22,3.96-0.22C1125.47,357.51,1129.62,358.37,1129.62,362.48z"></path>		<rect x="1168.59" y="353.59" class="st1" width="5.78" height="30.99"></rect>		<path class="st1" d="M1225.08,353.59h-6.25l-12.6,30.99h5.97l3.69-9.39h11.86l3.8,9.39h6.13l-12.46-30.64L1225.08,353.59z    M1223.17,363.23l3.22,7.82h-9.1l3.18-7.87c0.52-1.29,0.94-2.58,1.32-3.85C1222.18,360.57,1222.61,361.85,1223.17,363.23z"></path>		<polygon class="st1" points="1275.16,353.59 1269.38,353.59 1269.38,384.58 1290.37,384.58 1290.37,380.21 1275.16,380.21   "></polygon>		<polygon class="st1" points="1328.02,370.58 1341.8,370.58 1341.8,366.26 1328.02,366.26 1328.02,357.95 1342.65,357.95    1342.65,353.59 1322.24,353.59 1322.24,384.58 1343.44,384.58 1343.44,380.21 1328.02,380.21   "></polygon>		<path class="st1" d="M1387.62,366.55c-5.06-1.64-6.69-2.91-6.69-5.22c0-1.95,1.9-3.91,6.14-3.91c3.55,0,5.83,1.04,6.44,1.35   l0.55,0.29l1.69-4.21l-0.47-0.23c-0.93-0.46-3.57-1.52-8.07-1.52c-7.11,0-12.07,3.57-12.07,8.67c0,4.13,3.11,7.01,9.8,9.05   c5.25,1.64,6.31,3.27,6.31,5.35c0,2.8-2.64,4.53-6.88,4.53c-2.81,0-5.69-0.69-7.91-1.88l-0.57-0.31l-1.63,4.29l0.42,0.24   c2.09,1.17,6.03,2.02,9.36,2.02c9.58,0,12.98-4.96,12.98-9.21C1397.04,371.47,1394.22,368.69,1387.62,366.55z"></path>	</g>	<path class="st0" d="M975.44,302.3V142.7h39.57v159.6H975.44z"></path>	<path class="st0" d="M1100.17,142.7l73.63,114.7l-1.75-114.7h38.57v159.6h-43.83l-77.39-120.7l1.75,120.7h-38.82V142.7H1100.17z"></path>	<g>		<path class="st0" d="M855.95,175.55c6.29-3.24,14.29-4.95,24.08-5.06h62.11V142.7l-62.86,0.22c-27.22,0-47.63,5.93-61.24,17.78   c-4.74,4.13-8.75,9.09-12.06,14.84H855.95z"></path>		<path class="st0" d="M942.14,207.83H795.75c-0.37,2.73-0.67,5.54-0.88,8.45c-0.17,2.22-0.29,4.44-0.38,6.67   c-0.09,2.22-0.04,4.52,0.13,6.89c0.33,10.97,2.5,21.67,6.51,32.12c4.01,10.45,11.02,19.3,21.04,26.56   c8.35,5.93,17.24,9.71,26.67,11.34c9.43,1.63,19.24,2.44,29.43,2.44h63.86v-27.79l-62.11,0.22c-0.34,0-0.71,0-1.13,0   c-0.42,0-0.79,0-1.13,0c-5.51,0-10.89-0.48-16.15-1.45c-5.26-0.96-9.81-3.45-13.65-7.45c-4.34-4.3-7.22-9.04-8.64-14.23   c-1.42-5.18-2.13-10.59-2.13-16.22h104.94V207.83z"></path>	</g>	<path class="st0" d="M471.55,142.7c1.84,0.15,3.63,0.22,5.38,0.22s3.55,0.08,5.39,0.22c6.84,0.3,13.56,1.26,20.16,2.89  c6.59,1.63,12.4,4.67,17.41,9.11c4.51,3.85,7.89,8.37,10.14,13.56c2.25,5.19,3.63,10.52,4.13,16.01c0,1.04,0.04,2.08,0.12,3.11  c0.08,1.04,0.12,2.08,0.12,3.11c0.16,11.11-2.72,20.71-8.64,28.79c-5.93,8.08-15.15,13.45-27.67,16.12l44.83,66.46h-42.58  l-39.57-62.68H416.2v62.68h-37.82V142.7H471.55z M462.53,171.15H416.2v40.23h46.33c0.33,0.15,0.67,0.22,1,0.22c0.33,0,0.67,0,1,0  c8.01,0,15.32-1.07,21.91-3.22c6.59-2.15,9.81-7.82,9.64-17.01c0-9.48-3.47-15.19-10.39-17.11c-6.93-1.92-14.65-2.89-23.17-2.89  V171.15z"></path>	<path class="st0" d="M621.82,142.7l45.83,122.48l45.83-122.48h55.35v159.6h-37.07l3.01-124.26L688.69,302.3h-40.07l-47.58-125.59  l3.76,125.59h-38.57V142.7H621.82z"></path>	<g>		<path class="st0" d="M259.35,175.44c6.26-3.17,14.18-4.85,23.86-4.95h62.11V142.7l-62.86,0.22c-27.22,0-47.63,5.93-61.24,17.78   c-4.71,4.11-8.7,9.03-12,14.73H259.35z"></path>		<path class="st0" d="M345.32,207.72h-54.85l-49.84,0.11c0-0.04,0.01-0.07,0.01-0.11h-41.69c-0.38,2.76-0.68,5.61-0.89,8.55   c-0.17,2.22-0.29,4.44-0.38,6.67c-0.09,2.22-0.04,4.52,0.13,6.89c0.33,10.97,2.5,21.67,6.51,32.12   c4.01,10.45,11.02,19.3,21.04,26.56c8.35,5.93,17.24,9.71,26.67,11.34c9.43,1.63,19.24,2.44,29.43,2.44h63.86v-27.79l-62.11,0.22   c-0.34,0-0.71,0-1.13,0c-0.42,0-0.79,0-1.13,0c-5.51,0-10.89-0.48-16.15-1.45c-5.26-0.96-9.81-3.45-13.65-7.45   c-4.34-4.3-7.22-9.04-8.64-14.23c-1.42-5.18-2.13-10.59-2.13-16.22h104.94V207.72z"></path>	</g>	<path class="st0" d="M160.71,227.18c-0.51-0.73-3.71-5.26-8.48-8.89c-1.44-1.1-2.89-2.01-3.05-2.11c-2.2-1.37-4.26-2.33-6.36-3.27  c-11.03-4.92-22.69-7.48-35.06-7.43c-10.38,0.04-20.76,0.06-31.14-0.01c-23.98-0.16-45.18-5.1-56.7-26.78  c-8.67,28.07,12.31,55.8,45.59,61.03c4.61,0.72,9.24,1.03,13.87,1.14h10.5c5.1-0.08,10.21-0.2,15.3-0.08  c0.83,0.02,1.65,0.04,2.47,0.08h5.6c7.7,0,13.95,5.54,13.95,12.38v3.62c0,6.84-6.24,12.38-13.95,12.38H54.24  c-3.84,0-7.69,0.01-11.53,0.02c-7.75,0.02-10.37,2.34-10.47,9.13c-0.09,6.08-0.05,12.15,0,18.23c0.04,5.27,3.13,7.97,9.05,7.96  c23.64-0.02,47.29,0.46,70.9-0.25c29.2-0.87,51.69-19.1,55.22-43.89c0.6-4.2,0.44-7.58,0.33-9.65  C167.47,245.64,166.86,236.01,160.71,227.18z"></path>	<g>		<g>			<defs>				<path id="SVGID_1_" d="M145.51,141.44c6.76,0.42,9.78,3.6,9.52,9.64c-0.24,5.68,0.03,11.38-0.07,17.08     c-0.11,6.37-2.88,8.87-10.11,8.89c-21.46,0.07-42.91,0.05-64.37,0.02c-6.08-0.01-11.98,0.57-16.96,4     c-1.91,1.32-3.58,1.13-5.48,0.27c-7.6-3.43-12.55-8.66-13.48-16.34c-0.95-7.86,3.03-13.64,10.41-17.71     c6.97-3.85,14.92-4.67,22.78-5.71C100.34,141.53,122.92,141.49,145.51,141.44z"></path>			</defs>			<use xlink:href="#SVGID_1_" style="overflow:visible;fill:#FABD1C;"></use>			<clipPath id="SVGID_00000149367357088762874940000004559861828548841610_">				<use xlink:href="#SVGID_1_" style="overflow:visible;"></use>			</clipPath>			<g style="clip-path:url(#SVGID_00000149367357088762874940000004559861828548841610_);">				<image style="overflow:visible;" width="227" height="54" xlink:href="68B6F9F.png" transform="matrix(1 0 0 1 -27 129)">				</image>			</g>		</g>	</g>	<path class="st0" d="M1409.67,255.22l-16.59,1.69l12.07-7.12l-39.74,10.75c-1.23,1.85-2.64,3.63-4.27,5.31  c-4.01,4-8.64,6.49-13.9,7.45c-5.26,0.97-10.64,1.45-16.15,1.45c-0.34,0-0.71,0-1.13,0c-0.42,0-0.79-0.07-1.13-0.22H1285V170.49  h43.83v0.22c0.33,0,0.71,0,1.13,0c0.42,0,0.79,0,1.13,0c5.51,0,10.89,0.52,16.15,1.56c5.26,1.04,9.9,3.56,13.9,7.56  c4.01,3.86,6.8,8.3,8.39,13.34c1.58,5.04,2.54,10.15,2.88,15.34c0.33,2.37,0.5,4.78,0.5,7.23c0,2.44,0,4.78,0,7  c0,2.22,0,4.44,0,6.67c0,2.03-0.08,4.07-0.22,6.1l32.03,8.5l-11.48-9.23l17.76,4.06l-7.44-13.56l10.56,6.75  c0.04-0.72,0.09-1.45,0.11-2.17c0.17-2.37,0.21-4.67,0.13-6.89c-0.09-2.22-0.21-4.44-0.38-6.67c-1.84-25.19-9.52-43.71-23.04-55.57  c-13.52-11.85-33.98-17.85-61.36-18h-82.4v159.6h83.4c10.35,0,20.24-0.81,29.68-2.44c9.43-1.63,18.24-5.41,26.42-11.34  c8.37-6.07,14.64-13.26,18.81-21.55L1409.67,255.22z"></path>	<g>					<ellipse transform="matrix(0.2434 -0.9699 0.9699 0.2434 1044.3831 1553.7919)" class="st2" cx="1518.11" cy="107.49" rx="2.19" ry="1.75"></ellipse>					<ellipse transform="matrix(0.2434 -0.9699 0.9699 0.2434 1042.7581 1540.5963)" class="st2" cx="1508.84" cy="101.93" rx="2.19" ry="1.75"></ellipse>					<ellipse transform="matrix(0.2434 -0.9699 0.9699 0.2434 1045.7499 1567.2963)" class="st2" cx="1527.45" cy="113.37" rx="2.19" ry="1.75"></ellipse>					<ellipse transform="matrix(0.2434 -0.9699 0.9699 0.2434 1047.2416 1581.9928)" class="st2" cx="1537.61" cy="119.76" rx="2.19" ry="1.75"></ellipse>					<ellipse transform="matrix(0.2434 -0.9699 0.9699 0.2434 1049.173 1596.8232)" class="st2" cx="1548.08" cy="125.94" rx="2.19" ry="1.75"></ellipse>					<ellipse transform="matrix(0.2434 -0.9699 0.9699 0.2434 1050.521 1611.9042)" class="st2" cx="1558.42" cy="132.61" rx="2.19" ry="1.75"></ellipse>					<ellipse transform="matrix(0.2434 -0.9699 0.9699 0.2434 1051.7557 1626.9205)" class="st2" cx="1568.67" cy="139.33" rx="2.19" ry="1.75"></ellipse>	</g>	<path class="st2" d="M1499.75,103.23l-9,28.21l72.26,50.09l11.5-31.29L1499.75,103.23z M1498.71,132.69l25.19-11.03l24.2,14.75  l-26.61,11.15L1498.71,132.69z M1532.62,154.93l-5.82-3.89l25.19-11.03l7.24,3.77L1532.62,154.93z"></path>	<polygon class="st3" points="1437.17,260.16 1484.63,259.59 1438.24,255.89 1481.25,247.17 1436.95,252.13 1472.14,233.19   1434.5,247.7 1458.66,222.62 1430.72,244.74 1445.51,212.27 1425.43,242.59 1428.76,212.19 1420.89,239.51 1420.87,239.55   1411.3,233.96 1415.24,241.67 1402.26,239.27 1415.38,247.21 1406.68,252.78 1415.38,251.86 1409.68,266.59 1418.73,255.88   1416.71,290.25 1424,261.12 1428.31,267.56 1428.31,267.56 1428.65,268.64 1443.7,292.15 1431.77,267.21 1460.61,286.88   1435.19,263.99 1468.83,277.01  "></polygon>	<g>		<path class="st2" d="M1497.79,277.18c0,0,8.26,7.62,19.02-2.26l-6.99-11.91l-18.15,0.94   C1494.97,271.15,1497.79,277.18,1497.79,277.18z"></path>		<path class="st2" d="M1500.13,246.53l-14.78,3.49c0.88,2,1.86,4.17,2.86,6.38l18.07,0.61L1500.13,246.53z"></path>		<path class="st2" d="M1482.39,243.25l14.58-2.09l-6.02-10.24c0,0-0.89-0.53-2.83,0.01l-4.99,2.69   C1479.61,236.1,1479.53,236.64,1482.39,243.25z"></path>	</g>	<g>		<polygon class="st2" points="1486.43,276.57 1492.85,278.18 1492.04,276.96 1486.06,264.25 1481.25,264.5   "></polygon>		<polygon class="st2" points="1479.95,251.29 1475.98,252.23 1477.62,256.05 1482.27,256.2   "></polygon>		<polygon class="st2" points="1473.68,244.5 1476.56,244.09 1475.57,241.99   "></polygon>	</g>	<rect x="17" y="319" class="st4" width="1383" height="13"></rect>	<polygon class="st5" points="1498.71,132.69 1523.9,121.66 1548.11,136.41 1521.49,147.56  "></polygon>	<polygon class="st5" points="1526.8,151.04 1552,140.01 1559.24,143.78 1532.62,154.93  "></polygon></g></svg>