<svg width="140" height="144" viewBox="0 0 140 144" fill="none" xmlns="http://www.w3.org/2000/svg">
<g clip-path="url(#clip0_865_9499)">
<mask id="mask0_865_9499" style="mask-type:luminance" maskUnits="userSpaceOnUse" x="-25" y="-21" width="165" height="165">
<path d="M-23.268 80.0435C-19.4151 118.437 31.4882 143.77 70.0374 143.77C79.2034 143.77 88.2796 141.964 96.7478 138.456C105.216 134.948 112.91 129.806 119.392 123.324C125.873 116.842 131.014 109.146 134.522 100.677C138.03 92.2078 139.835 83.1305 139.835 73.9634C139.835 35.4165 90.886 -20.0166 52.3438 -20.0166H50.4313C12.259 -20.0166 -33.249 -19.1999 -23.268 80.0435Z" fill="white"/>
</mask>
<g mask="url(#mask0_865_9499)">
<path d="M139.837 73.9644C139.837 87.7707 135.744 101.267 128.074 112.747C120.405 124.226 109.504 133.173 96.7502 138.457C83.9963 143.74 69.9624 145.123 56.423 142.429C42.8836 139.736 30.4468 133.087 20.6855 123.325C10.9241 113.562 4.27652 101.124 1.58336 87.5829C-1.1098 74.0418 0.27243 60.0061 5.55524 47.2507C10.8381 34.4953 19.7842 23.5931 31.2623 15.9227C42.7405 8.25226 56.2351 4.1582 70.0398 4.1582C88.5513 4.1582 106.305 11.5128 119.394 24.604C132.484 37.6951 139.837 55.4506 139.837 73.9644Z" fill="#D4EAE3"/>
<path d="M77.9362 12.0049L69.8537 109.196H14.4483L3.21094 12.0049H77.9362Z" fill="#F2F0EC"/>
<path d="M69.8506 109.196C69.8506 111.59 65.3138 113.719 58.348 115.031C57.2243 115.241 56.0307 115.429 54.7813 115.597C50.5918 116.133 46.3716 116.394 42.148 116.379C26.8414 116.379 14.4453 113.154 14.4453 109.182C14.4453 105.21 26.8483 101.985 42.148 101.985C46.9627 101.961 51.7721 102.308 56.5333 103.025C57.7268 103.213 58.8645 103.423 59.9324 103.66C65.9978 105.007 69.8576 106.976 69.8576 109.196" fill="#F2F0EC"/>
<path d="M41.056 46.0352C44.436 46.0338 47.7405 47.035 50.5514 48.9122C53.3623 50.7894 55.5534 53.4582 56.8475 56.581C58.1416 59.7038 58.4806 63.1403 57.8215 66.4558C57.1624 69.7713 55.535 72.8168 53.145 75.2071C50.755 77.5974 47.7098 79.2251 44.3947 79.8842C41.0796 80.5434 37.6435 80.2044 34.5211 78.9101C31.3987 77.6159 28.7302 75.4245 26.8532 72.6132C24.9763 69.802 23.9752 66.4971 23.9766 63.1167C23.9784 58.587 25.7784 54.2433 28.9811 51.0403C32.1837 47.8373 36.5268 46.037 41.056 46.0352Z" fill="#006241"/>
<path d="M77.9329 11.9775L69.8503 109.197C69.8503 111.591 65.3135 113.72 58.3477 115.032L59.1573 109.197L59.939 103.675L60.0228 103.047L72.3002 14.4557L75.0921 12.0055L77.9329 11.9775Z" fill="#DEDCD4"/>
<path d="M79.511 11.3487C79.511 16.3678 64.8535 20.4933 46.0082 20.9959C44.7309 20.9959 43.4326 21.0448 42.1205 21.0518C30.7225 21.0518 20.5181 19.7254 13.664 17.6313C8.08018 15.9419 4.75781 13.7431 4.75781 11.3487C4.75781 5.98759 21.5092 1.63867 42.1205 1.63867C53.2462 1.63867 63.2342 2.90216 70.0744 4.91258C75.9304 6.62283 79.4831 8.87757 79.4831 11.3487" fill="#1A3C34"/>
<path d="M69.2673 4.91254L45.1871 20.968C43.9098 20.968 42.6116 21.0238 41.2924 21.0238C29.8945 21.0238 19.6901 19.6975 12.8359 17.6103L40.5665 2.25293L69.2673 4.91254Z" fill="#36675B"/>
<path d="M40.5736 21.7069C61.2084 21.7069 77.9362 17.3627 77.9362 12.0038C77.9362 6.64499 61.2084 2.30078 40.5736 2.30078C19.9388 2.30078 3.21094 6.64499 3.21094 12.0038C3.21094 17.3627 19.9388 21.7069 40.5736 21.7069Z" stroke="#F0EAE6" stroke-width="5.38462" stroke-miterlimit="10"/>
<path d="M7.82812 20.0825C14.2006 22.1138 22.8904 25.7368 39.8373 25.1574C56.7842 24.578 72.2653 20.969 76.4741 18.1768" stroke="black" stroke-width="1.34615" stroke-miterlimit="10" stroke-linecap="round"/>
<path d="M55.4944 121.496C55.1175 124.107 56.1366 125.803 58.3771 127.186C65.1474 131.374 72.6018 133.28 80.3842 134.166C85.8564 134.774 91.3564 134.92 96.8565 135.143C106.942 135.548 116.993 135.486 126.946 133.594C132.767 132.491 138.358 130.739 143.111 126.99C143.97 126.292 144.612 123.723 144.13 122.767C144.014 122.57 143.826 122.426 143.607 122.362C141.115 121.518 138.671 120.539 136.285 119.43C135.921 119.012 135.431 118.724 134.889 118.606C131.783 116.449 128.817 114.153 126.723 110.928C126.562 110.683 126.339 110.718 126.109 110.739C126.109 110.258 126.472 110.041 126.848 109.797C128.098 109.05 129.319 108.268 130.576 107.535C134.945 104.994 139.852 103.724 144.424 101.664C146.811 100.589 149.26 99.6191 151.313 97.9229C152.297 98.7745 151.033 98.7536 150.831 98.8792C150.133 99.312 150.063 99.5773 150.656 100.226C152.422 102.09 157.713 105.343 159.953 106.558L163.876 108.575L144.961 123.151C144.961 123.151 144.682 123.186 144.158 122.774M56.4995 116.072C55.5217 116.103 54.5518 115.89 53.6761 115.454C52.8004 115.018 52.0463 114.372 51.4811 113.573C50.0013 112.254 49.8129 110.376 49.6035 108.554C49.5749 108.437 49.5704 108.316 49.5904 108.197C49.6104 108.078 49.6544 107.964 49.7197 107.863C49.785 107.762 49.8703 107.675 49.9703 107.608C50.0704 107.541 50.183 107.495 50.3015 107.472C50.3105 107.506 50.3286 107.536 50.3538 107.56C50.379 107.584 50.4103 107.6 50.4442 107.607C50.4781 107.615 50.5133 107.612 50.546 107.601C50.5787 107.589 50.6076 107.569 50.6295 107.542C52.2767 105.895 54.4056 105.148 56.5344 104.401C58.6632 103.654 60.8758 103.228 63.0535 102.558C59.9684 101.902 56.8904 101.378 53.8123 100.862C53.1702 100.75 53.0655 101.315 52.8491 101.699C51.8118 103.532 50.9427 105.455 50.2526 107.444C49.9176 106.572 50.4201 105.832 50.6574 105.05C51.1949 103.919 51.6835 102.767 52.2837 101.671C52.7095 100.883 52.7025 100.499 51.6765 100.513C51.3764 100.513 50.8319 100.569 51.1251 99.9263C55.1873 100.624 59.2565 101.253 63.3117 101.979C75.7636 104.212 88.2085 106.502 100.472 109.615C105.888 111.012 111.312 112.408 116.358 114.893C116.819 115.123 117.517 115.179 117.475 115.968C114.105 114.186 110.53 112.822 106.831 111.905C100.36 109.895 93.7505 108.464 87.1337 107.019C86.1425 106.809 85.1723 106.39 84.1184 106.544C79.0248 107.166 74.173 109.073 70.0193 112.087C66.667 114.639 62.583 116.046 58.3701 116.1L56.8904 116.058M156.924 113.894C156.401 113.629 155.982 113.427 155.57 113.196C150.922 110.795 146.497 108.115 144.242 103.075C143.949 102.411 143.607 102.46 143.035 102.698C141.613 103.316 140.159 103.856 138.679 104.317C137.632 104.624 137.437 105.015 137.828 106.055C140.068 112.01 144.375 115.884 150.049 118.446C150.251 118.559 150.484 118.605 150.714 118.576C150.944 118.547 151.159 118.445 151.326 118.285C153.155 116.833 154.998 115.395 156.91 113.881" fill="#1D3A33"/>
<path d="M137.365 73.6865C140.103 76.1202 142.333 79.0715 143.926 82.3704C144.087 82.6985 144.247 83.0685 144.624 83.1522C144.685 83.7102 144.871 84.2473 145.169 84.7229C147.004 87.5151 147.542 90.4749 146.292 93.6511C144.956 95.5548 142.97 96.9052 140.709 97.4485C124.142 101.245 107.123 102.685 90.1542 101.728C80.2912 101.107 70.4906 99.7274 60.8392 97.6021C58.6288 97.2166 56.6248 96.0649 55.1787 94.3491C54.3687 93.013 53.9551 91.4742 53.986 89.9121C54.0169 88.3499 54.491 86.8287 55.3532 85.5256C55.9083 84.6532 56.3983 83.7409 56.8189 82.7962C58.9128 77.7283 63.003 74.9221 67.812 72.8628C75.4898 69.5819 83.5095 67.7321 91.6339 66.1265C96.8897 65.0864 102.18 64.2767 107.485 63.6344C114.332 62.8177 120.747 64.4302 126.875 67.3551C130.593 69.0622 134.106 71.1863 137.344 73.6865M117.585 74.3846L113.676 74.4265C113.355 74.3706 113.034 74.3078 112.713 74.2659C110.464 74.0958 108.248 73.6263 106.124 72.8698C103.046 71.6482 102.208 70.0775 102.878 66.8734C102.874 66.7504 102.845 66.6295 102.795 66.5174C102.467 66.5174 102.397 66.7687 102.306 66.9851C101.413 69.1701 102.166 71.2573 104.449 72.5696C107.283 74.238 110.43 74.6638 113.655 74.7755H117.592C120.153 74.6778 122.533 74.0774 124.355 72.1229C124.852 71.6913 125.172 71.091 125.254 70.4376C125.335 69.7842 125.171 69.1238 124.795 68.5837C125.039 71.341 123.483 72.6045 121.41 73.4701C120.167 73.8948 118.886 74.1965 117.585 74.3706M133.813 80.2553C131.613 81.8878 129.041 82.948 126.33 83.3407C119.302 84.6112 112.217 84.5833 105.133 84.1086C101.503 83.8643 97.9716 83.0685 94.9563 80.7998C94.8097 80.6881 94.6283 80.6252 94.4887 80.8696C94.8303 81.3827 95.316 81.7834 95.8846 82.0214C98.9906 83.8852 102.446 84.4785 105.984 84.7298C110.576 85.0405 115.184 85.0405 119.776 84.7298C123.159 84.601 126.51 84.0403 129.75 83.0615C131.356 82.531 132.94 81.9376 134.092 80.5903C135.551 79.1384 135.948 77.84 135.216 76.4718C135.23 77.8784 134.734 79.2426 133.82 80.3111M83.5653 86.8031C79.196 82.6147 78.1072 77.6445 79.9359 71.9065C77.4441 75.8714 78.3724 83.3477 83.335 87.0893C85.585 89.1775 88.3046 90.6931 91.264 91.508C103.85 95.475 117.302 95.7993 130.064 92.4434C133.387 91.5709 136.625 90.426 139.403 88.2551C139.969 87.8223 140.562 87.3755 140.457 86.489C139.284 87.9021 137.767 88.9908 136.053 89.6512C130.727 92.0128 125.03 93.43 119.218 93.8396C113.828 94.3123 108.404 94.1977 103.039 93.4975C96.094 92.583 89.2887 91.2428 83.5653 86.7822M64.6013 77.8679C62.8215 84.8485 69.6756 96.4782 75.8388 96.8971C67.2397 93.4067 65.411 85.9375 64.6013 77.8679ZM93.9582 80.0808C93.2602 78.8871 92.4994 77.7841 92.2133 76.4299C91.933 75.1453 91.8928 73.82 92.0946 72.5208C92.304 71.2433 92.8345 70.0357 92.9601 68.7512C90.3915 72.6604 91.3199 78.6218 93.9582 80.0808Z" fill="#D1A04A"/>
<path d="M55.1777 94.3483C56.6438 96.0838 58.6805 97.2396 60.9221 97.6083C70.5734 99.7336 80.374 101.113 90.2371 101.734C107.206 102.691 124.225 101.251 140.791 97.4547C143.053 96.9113 145.039 95.561 146.375 93.6572C148.204 94.8543 149.87 96.2833 151.331 97.9084C149.279 99.6047 146.829 100.575 144.442 101.65C139.87 103.744 134.963 104.98 130.594 107.521C129.338 108.219 128.116 109.036 126.867 109.782C126.49 110.006 126.169 110.243 126.127 110.725C126.094 110.814 126.034 110.891 125.955 110.945C125.876 110.999 125.783 111.027 125.687 111.025C125.052 111.025 124.508 111.081 124.459 111.884L124.11 112.17H124.054C123.642 112.17 123.356 112.268 123.314 112.742C122.784 112.7 122.428 112.861 122.463 113.475L121.841 114.173L121.143 114.718C120.522 114.718 120.445 115.123 120.445 115.611C120.294 115.951 120.034 116.231 119.706 116.407L118.379 116.526C118.317 116.002 118.023 115.828 117.528 115.953L117.451 116.016C117.493 115.227 116.795 115.171 116.334 114.941C111.288 112.449 105.865 111.039 100.448 109.664C88.185 106.55 75.7401 104.261 63.2882 102.027C59.233 101.329 55.1638 100.631 51.1016 99.9747C51.7228 97.5803 53.4468 95.9888 55.1638 94.3902" fill="#116242"/>
<path d="M136.289 119.416C138.675 120.525 141.119 121.504 143.611 122.348C143.831 122.412 144.018 122.557 144.135 122.753C144.616 123.709 143.974 126.299 143.116 126.976C138.362 130.725 132.772 132.477 126.95 133.58C116.997 135.472 106.946 135.535 96.8607 135.13C91.3606 134.906 85.8606 134.76 80.3884 134.152C72.606 133.28 65.1516 131.36 58.3813 127.172C56.1408 125.776 55.1217 124.093 55.4986 121.49C55.7359 119.863 55.8616 118.216 55.9523 116.603C56.0012 115.78 56.4758 116.066 56.8876 116.101C56.9402 117.045 57.3583 117.931 58.0532 118.572C59.5748 120.149 61.5431 120.736 63.5672 121.182C69.6257 122.523 75.8097 122.788 81.9798 123.116C86.4748 123.36 90.9907 123.319 95.4926 123.36C105.062 123.451 114.645 123.884 124.2 122.662C127.648 122.319 131.054 121.641 134.37 120.638C135.068 120.401 135.989 120.394 136.289 119.451" fill="#D1A04A"/>
<path d="M121.136 114.69L121.834 114.146C122.686 114.516 123.544 114.844 124.382 115.27C126.985 116.505 129.742 117.448 132.06 119.284C131.784 119.457 131.489 119.598 131.18 119.703C126.762 120.724 122.25 121.293 117.716 121.399C107.303 121.441 96.8888 121.727 86.482 120.938C82.1545 120.61 77.8061 120.422 73.4856 119.954C73.4856 119.675 73.4856 119.395 73.4856 119.116C72.8435 114.837 75.5098 111.514 79.8582 111.249C81.0213 111.194 82.1866 111.208 83.348 111.291C86.1073 111.57 88.892 111.13 91.4306 110.013C92.2872 109.61 93.2312 109.428 94.1762 109.485C95.1212 109.541 96.037 109.833 96.8399 110.335C99.9668 112.031 103.373 112.205 106.828 111.905C110.526 112.829 114.098 114.2 117.465 115.989L117.542 115.926C117.599 116.103 117.714 116.256 117.869 116.359C118.023 116.463 118.208 116.512 118.393 116.498C118.91 117.385 119.308 116.771 119.72 116.38C120.048 116.204 120.308 115.924 120.459 115.584L121.157 114.69" fill="#D2A14B"/>
<path d="M106.821 111.906C103.331 112.206 99.9596 112.031 96.8326 110.335C96.0311 109.834 95.1163 109.541 94.1724 109.485C93.2285 109.429 92.2856 109.611 91.4303 110.014C88.8811 111.137 86.0837 111.577 83.3128 111.292C82.1514 111.209 80.9861 111.195 79.823 111.25C75.4746 111.515 72.8432 114.838 73.4504 119.117C73.4923 119.396 73.4504 119.675 73.4504 119.954C70.1839 119.605 66.9244 119.256 63.6788 118.9C61.5849 118.656 59.4211 118.419 58.3672 116.108C62.5782 116.055 66.6604 114.648 70.0094 112.094C74.1658 109.081 79.0198 107.174 84.1155 106.552C85.1695 106.398 86.1396 106.817 87.1308 107.026C93.7476 108.422 100.392 109.874 106.828 111.913" fill="#F2F1EB"/>
<path d="M58.3614 116.128C59.4154 118.418 61.5651 118.655 63.673 118.92C66.9326 119.311 70.1921 119.618 73.4447 119.974C77.7652 120.442 82.1135 120.63 86.441 120.959C96.8478 121.747 107.262 121.461 117.675 121.419C122.209 121.313 126.721 120.745 131.139 119.723C131.448 119.618 131.743 119.477 132.019 119.304L134.846 118.606C135.387 118.723 135.877 119.012 136.242 119.43C135.941 120.372 135.02 120.379 134.322 120.617C131.004 121.62 127.595 122.298 124.146 122.641C114.597 123.883 105.014 123.451 95.4449 123.339C90.9429 123.297 86.427 123.339 81.9321 123.095C75.762 122.767 69.5779 122.501 63.5195 121.161C61.4884 120.714 59.527 120.128 58.0055 118.55C57.3106 117.909 56.8925 117.023 56.8398 116.079L58.3195 116.121" fill="#AF813B"/>
<path d="M156.925 113.894C154.999 115.408 153.156 116.846 151.342 118.298C151.174 118.458 150.959 118.56 150.73 118.589C150.5 118.618 150.266 118.573 150.064 118.459C144.39 115.897 140.083 112.023 137.843 106.068C137.452 105.035 137.647 104.637 138.694 104.33C140.174 103.869 141.628 103.329 143.05 102.711C143.622 102.473 143.964 102.424 144.257 103.088C146.533 108.128 150.937 110.808 155.585 113.21C155.997 113.426 156.416 113.628 156.939 113.908" fill="#D1E7E0"/>
<path d="M134.857 118.592L132.03 119.29C129.741 117.454 126.984 116.497 124.352 115.276C123.515 114.885 122.656 114.529 121.805 114.152L122.426 113.454L123.277 112.721L124.017 112.149H124.073L124.422 111.862C124.894 111.679 125.316 111.384 125.651 111.004C125.746 111.005 125.839 110.977 125.918 110.924C125.997 110.87 126.057 110.793 126.09 110.704C126.321 110.704 126.544 110.648 126.704 110.899C128.798 114.124 131.765 116.421 134.871 118.578" fill="#F2F1EB"/>
<path d="M50.25 107.442C50.9255 105.447 51.7805 103.517 52.8046 101.676C53.021 101.292 53.1257 100.727 53.7678 100.839C56.8459 101.355 59.9239 101.879 63.009 102.535C60.8313 103.233 58.6118 103.638 56.4899 104.378C54.3681 105.118 52.2323 105.872 50.585 107.519C50.5631 107.546 50.5342 107.566 50.5015 107.578C50.4688 107.589 50.4336 107.592 50.3997 107.584C50.3658 107.577 50.3345 107.561 50.3093 107.537C50.2841 107.513 50.266 107.483 50.257 107.449" fill="#CEE3DC"/>
<path d="M83.6131 86.7824C89.3365 91.2431 96.1767 92.5833 103.087 93.4978C108.451 94.1979 113.876 94.3126 119.266 93.8398C125.078 93.4303 130.774 92.0131 136.101 89.6515C137.815 88.9911 139.331 87.9024 140.505 86.4893C140.61 87.3758 140.017 87.8226 139.451 88.2554C136.659 90.3914 133.435 91.5362 130.112 92.4437C117.35 95.7996 103.898 95.4753 91.3118 91.5083C88.3525 90.6934 85.6328 89.1778 83.3828 87.0896L83.6131 86.8034" fill="#3B4B3A"/>
<path d="M134.084 80.5689C132.932 81.9161 131.348 82.5095 129.735 83.04C126.498 84.0195 123.148 84.5801 119.768 84.7084C115.176 85.019 110.568 85.019 105.976 84.7084C102.437 84.4571 98.9964 83.8637 95.8764 81.9999C95.3093 81.7595 94.8242 81.3593 94.4805 80.8481C94.6201 80.6038 94.8015 80.6666 94.9481 80.7713C97.9564 83.047 101.495 83.8428 105.125 84.0871C112.209 84.5618 119.294 84.5897 126.322 83.3192C129.031 82.9374 131.603 81.8866 133.804 80.2617L134.049 80.5479" fill="#3B4B3A"/>
<path d="M64.6028 77.8672C65.4124 85.9368 67.2411 93.3851 75.8402 96.8963C69.677 96.4775 62.8229 84.8548 64.6028 77.8672Z" fill="#3B4B3A"/>
<path d="M113.676 74.803C110.451 74.7122 107.303 74.2655 104.47 72.5971C102.187 71.2568 101.433 69.1696 102.327 67.0126C102.417 66.7962 102.487 66.5659 102.815 66.5449C102.866 66.657 102.895 66.7779 102.899 66.9009C102.201 70.126 103.067 71.6757 106.145 72.8973C108.269 73.6538 110.485 74.1233 112.734 74.2934C113.055 74.3353 113.376 74.3981 113.697 74.454V74.8239" fill="#3B4B3A"/>
<path d="M83.3808 87.0676C78.4182 83.326 77.4899 75.8498 79.9817 71.8848C78.153 77.6228 79.2418 82.621 83.6112 86.7814L83.3808 87.0676Z" fill="#3B4B3A"/>
<path d="M93.9624 80.0795C91.3241 78.6206 90.3958 72.6591 92.9643 68.75C92.8387 70.0344 92.3082 71.2421 92.0988 72.5195C91.897 73.8187 91.9372 75.1441 92.2175 76.4287C92.5036 77.7829 93.2993 78.8858 93.9624 80.0795Z" fill="#3B4B3A"/>
<path d="M117.602 74.4051C118.903 74.2309 120.184 73.9293 121.426 73.5046C123.52 72.625 125.056 71.3615 124.812 68.6182C125.188 69.1583 125.352 69.8187 125.27 70.4721C125.189 71.1255 124.869 71.7258 124.372 72.1573C122.55 74.1049 120.184 74.7122 117.609 74.81V74.4191" fill="#3B4B3A"/>
<path d="M133.832 80.2895C134.747 79.2211 135.243 77.8568 135.228 76.4502C135.926 77.8463 135.563 79.1168 134.104 80.5688L133.86 80.2895" fill="#3B4B3A"/>
<path d="M117.608 74.4046V74.8025H113.672V74.4325L117.581 74.3906" fill="#1D3A33"/>
<path d="M125.631 111.019C125.296 111.399 124.875 111.694 124.402 111.877C124.451 111.075 124.996 110.984 125.631 111.019Z" fill="#1D3A33"/>
<path d="M119.713 116.379C119.301 116.77 118.903 117.384 118.387 116.498L119.713 116.379Z" fill="#1D3A33"/>
<path d="M123.305 112.715L122.453 113.448C122.453 112.834 122.774 112.673 123.305 112.715Z" fill="#1D3A33"/>
<path d="M121.135 114.689L120.438 115.582C120.438 115.093 120.5 114.682 121.135 114.689Z" fill="#1D3A33"/>
<path d="M118.395 116.477C118.209 116.491 118.024 116.442 117.87 116.338C117.715 116.234 117.6 116.081 117.543 115.904C118.039 115.786 118.332 115.953 118.395 116.477Z" fill="#1D3A33"/>
<path d="M124.029 112.161L123.289 112.734C123.289 112.259 123.617 112.141 124.029 112.161Z" fill="#1D3A33"/>
</g>
<path d="M121.801 33.6231L113.935 25.8746L104.135 30.9635L109.07 21.0859L101.211 13.3444L112.12 14.9848L117.062 5.11426L118.87 16.004L129.786 17.6445L119.986 22.7333L121.801 33.6231Z" fill="#D2A04A"/>
<path d="M116.013 52.5622L109.976 49.2115L104.929 53.9165L106.248 47.1453L100.211 43.7946L107.058 42.9569L108.377 36.1787L111.295 42.4333L118.142 41.5957L113.096 46.3006L116.013 52.5622Z" fill="#D2A04A"/>
<path d="M92.2133 33.0507L90.5242 30.4749L87.5508 31.2916L89.4772 28.8833L87.7881 26.3075L90.6707 27.3964L92.5971 24.9951L92.4506 28.0736L95.3332 29.1625L92.3598 29.9723L92.2133 33.0507Z" fill="#D2A04A"/>
</g>
<defs>
<clipPath id="clip0_865_9499">
<rect width="140" height="142.963" fill="white" transform="translate(0 0.807617)"/>
</clipPath>
</defs>
</svg>
