<svg width="140" height="156" viewBox="0 0 140 156" fill="none" xmlns="http://www.w3.org/2000/svg">
<g clip-path="url(#clip0_865_9549)">
<mask id="mask0_865_9549" style="mask-type:luminance" maskUnits="userSpaceOnUse" x="-3" y="-1" width="144" height="157">
<path d="M66.9271 0.770627C35.6779 -6.63293 -2.6874 29.3054 -2.6875 104.13C-0.692772 122.911 3.73303 117.938 18.6796 133.268C34.1665 149.128 52.4723 155.571 70.7434 155.571C79.839 155.571 88.8454 153.877 97.2486 150.587C105.652 147.296 113.287 142.472 119.719 136.392C126.15 130.311 131.252 123.092 134.733 115.147C138.213 107.202 140.005 98.6873 140.005 90.0879C140.005 53.928 105.18 0.770627 66.9271 0.770627Z" fill="white"/>
</mask>
<g mask="url(#mask0_865_9549)">
<path d="M140.118 86.1502C140.118 99.8969 136.033 113.335 128.38 124.765C120.728 136.195 109.851 145.103 97.1249 150.364C84.3989 155.625 70.3957 157.001 56.8859 154.319C43.3762 151.637 30.9666 145.018 21.2266 135.297C11.4866 125.577 4.85362 113.192 2.16636 99.7098C-0.520898 86.2273 0.858301 72.2522 6.12955 59.5519C11.4008 46.8516 20.3274 35.9964 31.7804 28.3592C43.2334 20.7219 56.6985 16.6455 70.473 16.6455C79.6188 16.6455 88.6752 18.4433 97.1249 21.9362C105.575 25.4292 113.252 30.5488 119.719 37.0029C126.186 43.4571 131.316 51.1192 134.816 59.5519C138.316 67.9846 140.118 77.0227 140.118 86.1502Z" fill="#D4EAE3"/>
<path d="M98.6467 181.399C93.1657 186.786 86.3892 189.476 78.9651 190.866C66.9235 193.125 55.9823 190.171 45.7167 183.957C45.0275 183.471 44.3757 182.934 43.7666 182.352C42.6593 179.071 42.4643 175.617 42.0046 172.225C40.6117 162.049 39.3372 151.867 38.014 141.691C37.5032 137.929 36.9925 134.169 36.4818 130.411C35.9525 126.47 35.4371 122.522 34.8939 118.595C34.3924 114.883 33.8492 111.172 33.3478 107.474C32.902 104.131 32.5677 100.767 32.0384 97.4446C31.4465 93.6914 31.342 89.8617 30.2764 86.2057C28.6746 80.6454 30.3878 76.343 34.8382 72.9651C35.6182 72.3674 35.6739 72.0407 35.1933 71.2066C33.5567 68.3708 34.3089 64.3465 36.7395 61.3578C39.1268 58.3492 42.4533 56.2232 46.1903 55.3179C46.42 55.2962 46.6427 55.2276 46.8446 55.1162C47.0465 55.0048 47.2233 54.853 47.3638 54.6704C47.5043 54.4877 47.6056 54.2782 47.6613 54.0547C47.717 53.8313 47.726 53.5988 47.6876 53.3717C47.7265 51.5457 48.3649 49.7829 49.5048 48.354C50.6447 46.9252 52.223 45.9092 53.9974 45.4621C54.0671 46.3518 54.1716 47.2345 54.2133 48.1241C54.5059 55.1789 54.8193 62.2336 55.056 69.2883C55.1048 70.7479 56.0102 70.8452 57.034 70.8591C58.6079 70.8591 59.2626 70.3587 59.2487 69.191C59.2487 67.3561 59.179 65.5211 59.1303 63.6862L58.6915 44.357C60.4326 43.8565 62.2434 44.0581 64.0124 43.8566C67.2021 43.5021 70.2247 42.946 72.7737 40.7844C74.9605 38.9217 76.2559 36.7184 75.9147 33.7923C75.8311 32.9791 76.0748 32.9443 76.6111 33.2918C79.9819 35.377 83.499 37.205 86.2917 40.0894C88.4856 42.3483 90.0735 44.8922 90.157 48.145C90.157 48.84 90.561 49.0485 91.1878 49.2293C92.9916 49.7436 94.8232 50.1676 96.432 51.2588C99.4477 53.3439 100.144 56.3396 99.9839 59.655C99.962 61.1692 99.5648 62.6544 98.8278 63.9781C98.2776 64.8817 98.6885 65.0416 99.4198 65.3265C101.663 66.2052 103.772 67.3912 105.688 68.8504C106.815 69.6612 107.76 70.6984 108.462 71.8954C109.163 73.0925 109.606 74.4228 109.762 75.8009C110.145 78.9981 111.155 82.1953 110.027 85.3856C108.543 89.5558 108.634 93.9346 108.042 98.2092C107.283 103.54 106.705 108.892 106.092 114.244C105.653 118.157 105.319 122.077 104.887 125.99C104.455 129.903 103.975 133.636 103.543 137.431C103.383 138.821 103.313 140.211 103.195 141.636C102.644 146.438 102.073 151.241 101.537 156.044C100.646 164.074 99.761 172.104 98.8835 180.134C98.8137 180.549 98.7231 180.959 98.6119 181.365M49.3591 95.8043C48.5373 95.6514 47.7085 95.5263 46.8937 95.3317C42.5827 94.3169 38.2647 93.3021 34.3576 91.0154C34.0581 90.8417 33.7587 90.6888 33.5288 91.0919C33.299 91.495 33.5845 91.641 33.8144 91.7869C34.3628 92.1394 34.9326 92.4574 35.5207 92.7392C38.4929 94.0727 41.5913 95.1065 44.7695 95.8252C50.8979 97.2149 57.1319 98.0914 63.4065 98.4455C69.8207 98.939 76.249 99.071 82.5866 98.0424C91.0045 96.6246 99.1416 93.8747 106.691 89.8964C106.99 89.7366 107.673 89.6879 107.387 89.0624C107.102 88.4368 106.628 88.9095 106.308 89.0624C104.218 90.1397 102.066 91.1475 99.8586 92.058C99.3362 90.6679 98.5423 91.7591 97.9503 91.919C96.4111 92.343 96.4251 92.4055 96.0908 92.8504C96.6967 93.0519 97.2469 92.1553 97.8667 92.767C89.4745 96.0754 80.8455 98.1119 71.7569 97.7713C71.8195 97.3612 72.0912 97.2639 72.4533 97.25C75.0734 97.1205 77.6831 96.8303 80.2675 96.3812C82.1395 96.1999 83.9825 95.7914 85.7555 95.1649C72.4115 97.4377 59.1651 96.5133 45.9256 94.1918C46.4958 94.5948 47.1392 94.8828 47.8199 95.0398C48.3353 95.2344 49.1293 94.9703 49.3382 95.7904M71.2763 113.09C65.6963 113.157 60.3715 115.434 56.4735 119.419C52.5754 123.405 50.4234 128.772 50.4908 134.341C50.5582 139.91 52.8396 145.224 56.833 149.114C60.8263 153.004 66.2047 155.152 71.7847 155.085C83.5617 154.828 92.7966 145.055 92.4623 133.768C92.3527 128.237 90.0708 122.971 86.1081 119.103C82.1454 115.236 76.819 113.076 71.2763 113.09ZM78.1712 57.4517C81.0823 57.403 83.9029 57.3822 86.5285 56.0616C86.8768 55.8809 87.5384 55.867 87.2877 55.304C87.0927 54.873 86.5912 55.0746 86.1664 55.2623C84.0847 56.1138 81.8556 56.5483 79.6058 56.5411C76.2838 56.6871 73.0732 56.0894 69.8556 55.5472C67.8219 55.2067 65.7256 55.0468 63.7547 55.9434C63.2097 56.1437 62.7275 56.4842 62.3569 56.9303C61.9863 57.3765 61.7405 57.9125 61.6443 58.4841C61.5482 59.0556 61.6051 59.6424 61.8094 60.1849C62.0136 60.7274 62.358 61.2064 62.8075 61.5733C63.6206 62.3262 64.5678 62.9203 65.6003 63.3248C72.1747 66.0355 79.181 66.6888 86.1316 67.5715C88.3233 67.7791 90.441 68.4724 92.33 69.6011C93.7577 70.5046 93.89 71.2692 92.915 72.5898C91.964 73.8819 90.7838 74.9891 89.4327 75.8565C82.4265 80.3534 74.5984 82.1119 66.4499 82.4942C60.8647 82.6771 55.2934 81.8336 50.0138 80.0059C48.203 79.4221 46.3922 78.8174 44.5884 78.2127C44.1636 78.0737 43.6552 77.6636 43.4254 78.3517C43.1955 79.0398 43.7805 79.0467 44.2611 79.1093C44.7604 79.222 45.2495 79.3754 45.7236 79.568C53.4542 82.4038 61.3519 84.0233 69.6675 83.1545C75.3415 82.5892 80.8895 81.1276 86.1037 78.8243C88.7955 77.675 91.2032 75.9529 93.1587 73.7783C95.1784 71.4707 94.8929 69.8513 92.2325 68.3917C89.925 67.2509 87.4131 66.5799 84.8431 66.4178C80.1855 65.9978 75.5665 65.2264 71.0256 64.1102C68.5462 63.4569 66.053 62.7966 63.9079 61.33C63.0652 60.7392 62.4036 60.0233 62.515 58.9182C62.5744 58.3353 62.8229 57.7878 63.2226 57.3587C63.6223 56.9297 64.1515 56.6426 64.7297 56.5411C66.2416 56.1689 67.8155 56.1215 69.3472 56.4021C72.314 56.8678 75.2321 57.6393 78.1712 57.4725M95.0809 92.8434L86.64 94.866C86.64 94.9911 86.6957 95.1232 86.7305 95.2483C89.5859 94.7478 92.4344 94.1988 95.0879 92.8434" fill="#FDFDFD"/>
<path d="M53.2875 26.2441L45.3619 32.1381C44.958 31.8323 45.2296 31.5334 45.3062 31.2554C46.2533 28.0512 47.1657 24.8331 48.1895 21.622C48.2822 21.4505 48.3378 21.2615 48.3526 21.0672C48.3674 20.8729 48.3412 20.6777 48.2755 20.4942C48.2098 20.3107 48.1062 20.143 47.9714 20.002C47.8366 19.861 47.6736 19.7499 47.493 19.6759C44.8117 17.9313 42.1861 16.0825 39.5535 14.2476C39.1914 13.9974 38.7108 13.8514 38.4531 13.2398C42.0886 13.1355 45.6474 12.9826 49.2132 12.9687C50.3485 12.9687 50.8429 12.6559 51.1494 11.516C52.0965 8.10337 53.176 4.69764 54.3182 0.881836C55.2097 3.33535 55.9758 5.42744 56.7279 7.52648C57.2224 8.91657 57.7378 10.265 58.1626 11.662C58.1934 11.8312 58.2578 11.9926 58.3519 12.1367C58.446 12.2807 58.568 12.4046 58.7107 12.5011C58.8534 12.5975 59.0139 12.6646 59.1829 12.6983C59.3519 12.7321 59.5259 12.7318 59.6948 12.6976C63.0935 12.5656 66.4921 12.503 69.8838 12.4127C70.2133 12.3865 70.5408 12.4831 70.8031 12.6837L66.1857 16.2632C64.8415 17.2988 63.5044 18.3484 62.1184 19.3353C61.9571 19.4226 61.8147 19.5409 61.6994 19.6832C61.584 19.8256 61.498 19.9894 61.4462 20.165C61.3944 20.3407 61.3779 20.5248 61.3977 20.7069C61.4174 20.8889 61.473 21.0653 61.5613 21.2258C62.8149 24.6107 63.9988 28.0303 64.9948 31.6515L58.1626 27.1407C57.6403 26.7445 57.1319 26.3275 56.5956 25.9591C54.8336 24.7358 54.8336 24.7428 53.2875 26.258" fill="#D09F4A"/>
<path d="M53.2891 26.244C54.8352 24.7288 54.8352 24.7219 56.5972 25.9452C57.1335 26.3135 57.6419 26.7306 58.1642 27.1267C58.3406 32.8678 58.5171 38.6112 58.6935 44.3569L59.1323 63.6862C59.174 65.5211 59.2298 67.356 59.2507 69.1979C59.2507 70.3586 58.6099 70.873 57.036 70.8591C56.0122 70.8591 55.1068 70.7479 55.058 69.2883C54.8212 62.2335 54.5078 55.1788 54.2153 48.1241C54.1736 47.2344 54.0691 46.3517 53.9994 45.4621L53.303 26.244" fill="#076A46"/>
<path d="M71.2948 113.104C76.8376 113.09 82.1639 115.249 86.1266 119.117C90.0893 122.984 92.3712 128.251 92.4808 133.781C92.8151 145.069 83.5802 154.841 71.8033 155.098C66.2232 155.166 60.8449 153.018 56.8515 149.128C52.8581 145.237 50.5768 139.923 50.5094 134.355C50.4419 128.786 52.5939 123.418 56.492 119.433C60.39 115.448 65.7148 113.171 71.2948 113.104Z" fill="#026742"/>
<path d="M78.188 57.4655C75.249 57.6323 72.3309 56.8607 69.364 56.395C67.8324 56.1144 66.2584 56.1617 64.7465 56.5341C64.1684 56.6355 63.6392 56.9226 63.2394 57.3517C62.8397 57.7807 62.5912 58.3283 62.5318 58.9112C62.3995 60.0164 63.0611 60.7323 63.9247 61.3231C66.0698 62.8245 68.5631 63.4848 71.0424 64.1035C75.5833 65.2197 80.2024 65.9911 84.86 66.4111C87.4299 66.5732 89.9418 67.2443 92.2493 68.3851C94.9097 69.8448 95.1953 71.4643 93.1756 73.772C91.2201 75.9467 88.8123 77.6689 86.1205 78.8183C80.9063 81.1217 75.3584 82.5834 69.6844 83.1486C61.3688 84.0175 53.471 82.3979 45.7405 79.562C45.2664 79.3694 44.7772 79.216 44.2779 79.1033C43.7974 79.0129 43.2124 79.0337 43.4422 78.3456C43.672 77.6575 44.1804 78.0676 44.6053 78.2066C46.4091 78.8113 48.2129 79.416 50.0306 79.9999C55.3172 81.8164 60.8927 82.6504 66.4807 82.4605C74.65 82.0504 82.499 80.3127 89.4635 75.8155C90.8156 74.9495 91.9961 73.842 92.9457 72.5487C93.9207 71.228 93.7815 70.4634 92.3607 69.5598C90.4717 68.4312 88.3541 67.7377 86.1623 67.5302C79.1978 66.6474 72.2334 65.9941 65.631 63.2833C64.5805 62.8912 63.6139 62.3039 62.7826 61.5525C62.333 61.1856 61.9887 60.7066 61.7844 60.1641C61.5801 59.6215 61.5232 59.0348 61.6194 58.4632C61.7155 57.8916 61.9613 57.3556 62.332 56.9094C62.7026 56.4632 63.1848 56.1227 63.7297 55.9224C65.7007 55.0257 67.797 55.1856 69.8306 55.5262C73.0761 56.0684 76.2867 56.6661 79.5809 56.5271C81.8307 56.5285 84.0592 56.0917 86.1414 55.2412C86.5523 55.0535 87.0677 54.852 87.2627 55.2829C87.5134 55.8459 86.8518 55.8598 86.5036 56.0405C83.9058 57.3612 81.0852 57.382 78.1462 57.4307" fill="#090A0A"/>
<path d="M71.7605 97.7856C80.8492 98.1262 89.4781 96.0896 97.8704 92.788L99.8622 92.0929C102.07 91.2102 104.201 90.1745 106.311 89.0971C106.632 88.9303 107.098 88.4785 107.391 89.0971C107.683 89.7158 107.015 89.7922 106.694 89.9312C99.1518 93.9076 91.0219 96.6576 82.6112 98.0776C76.2735 99.1063 69.8453 98.9742 63.431 98.4876C57.1571 98.1267 50.9237 97.2502 44.794 95.8672C41.6165 95.1429 38.5185 94.1068 35.5452 92.7741C34.9572 92.4924 34.3873 92.1743 33.8389 91.8219C33.616 91.6759 33.3584 91.4604 33.5534 91.1268C33.7484 90.7931 34.0827 90.8765 34.3821 91.0573C38.2614 93.3371 42.5793 94.3519 46.9182 95.3668C47.7331 95.5614 48.5618 95.6865 49.3836 95.8394C52.327 96.4072 55.2978 96.8225 58.2842 97.0836C62.7569 97.7074 67.2742 97.9539 71.7884 97.8204" fill="#090A0A"/>
<path d="M71.7626 97.7847C67.2485 97.9182 62.7312 97.6717 58.2585 97.048C55.2721 96.7868 52.3013 96.3715 49.3579 95.8038C49.149 94.9836 48.355 95.2477 47.8397 95.0531C47.1589 94.8961 46.5155 94.608 45.9453 94.2051C59.1778 96.5266 72.4103 97.4511 85.7752 95.1782C84.0022 95.8048 82.1592 96.2133 80.2872 96.3946C77.7028 96.8437 75.0931 97.1339 72.473 97.2634C72.0969 97.2634 71.8253 97.3746 71.7766 97.7847" fill="#F0EBE3"/>
<path d="M95.0964 92.8369C92.4498 94.1923 89.6014 94.7414 86.739 95.2419C86.7042 95.1168 86.6763 94.9847 86.6484 94.8596L95.0894 92.8369" fill="#F0EBE3"/>
<path d="M99.8615 92.0712L97.8697 92.7663C97.2499 92.1407 96.6997 93.0513 96.0938 92.8497C96.428 92.4049 96.4141 92.3423 97.9533 91.9183C98.5453 91.7584 99.3462 90.6741 99.8615 92.0573" fill="#F0EBE3"/>
<path d="M108.082 98.2435C108.563 94.9142 108.611 91.5155 109.301 88.207C108.695 88.5824 108.089 88.9438 107.469 89.2913C107.511 89.7014 106.982 89.757 106.724 89.896C99.1748 93.887 91.0352 96.6487 82.6129 98.0767C76.7528 98.92 70.8151 99.0902 64.9162 98.5841C55.6952 98.2226 48.7725 97.0272 43.6188 95.5676C40.8478 94.8919 38.1457 93.9612 35.547 92.7874C34.9586 92.5011 34.3887 92.1785 33.8407 91.8213C33.6596 91.7031 33.4576 91.5363 33.4924 91.3C32.6107 90.7568 31.7746 90.1431 30.9922 89.4651C31.4379 92.1062 31.619 94.7961 32.0369 97.4442C32.5662 100.773 32.9005 104.131 33.3462 107.474C33.8476 111.185 34.3909 114.897 34.8923 118.594C35.4355 122.542 35.9509 126.49 36.4802 130.41C36.9909 134.168 37.5017 137.928 38.0124 141.691C39.3356 151.866 40.6241 162.049 42.003 172.224C42.4627 175.616 42.6577 179.07 43.765 182.358C44.376 182.937 45.0277 183.471 45.7151 183.957C55.9807 190.163 66.9219 193.124 78.9635 190.872C86.3877 189.482 93.1641 186.785 98.6452 181.406C98.7357 180.989 98.868 180.586 98.9168 180.169C99.8082 172.139 100.693 164.108 101.57 156.078C102.106 151.276 102.678 146.473 103.228 141.67C103.346 140.28 103.416 138.89 103.576 137.465C104.008 133.649 104.502 129.819 104.92 126.025C105.338 122.23 105.686 118.191 106.125 114.278C106.738 108.926 107.316 103.575 108.075 98.2435M71.804 155.07C66.224 155.138 60.8457 152.99 56.8523 149.1C52.8589 145.21 50.5776 139.896 50.5101 134.327C50.4427 128.758 52.5947 123.391 56.4928 119.405C60.3908 115.42 65.7156 113.143 71.2956 113.076C76.8383 113.062 82.1647 115.221 86.1274 119.089C90.0901 122.957 92.372 128.223 92.4816 133.753C92.8159 145.041 83.581 154.813 71.804 155.07Z" fill="#D09F4A"/>
</g>
</g>
<defs>
<clipPath id="clip0_865_9549">
<rect width="140" height="154.808" fill="white" transform="translate(0 0.770508)"/>
</clipPath>
</defs>
</svg>
