<svg width="140" height="155" viewBox="0 0 140 155" fill="none" xmlns="http://www.w3.org/2000/svg">
<g clip-path="url(#clip0_865_9485)">
<mask id="mask0_865_9485" style="mask-type:luminance" maskUnits="userSpaceOnUse" x="-3" y="-7" width="144" height="162">
<path d="M44.4163 -6.73242C5.95149 -6.73242 -6.43637 32.9773 -0.679949 90.1862C1.32582 110.12 3.08394 114.938 18.1133 131.209C33.6859 148.043 52.093 154.882 70.4653 154.882C79.6112 154.882 88.6675 153.084 97.1172 149.592C105.567 146.099 113.244 140.979 119.712 134.525C126.179 128.071 131.309 120.409 134.809 111.976C138.309 103.543 140.11 94.5051 140.11 85.3776C142.685 41.7269 82.8811 -6.73242 44.4163 -6.73242Z" fill="white"/>
</mask>
<g mask="url(#mask0_865_9485)">
<path d="M140.11 85.3787C140.11 99.1254 136.025 112.563 128.373 123.993C120.72 135.423 109.843 144.332 97.1171 149.593C84.3911 154.853 70.3879 156.23 56.8781 153.548C43.3684 150.866 30.9588 144.246 21.2188 134.526C11.4788 124.805 4.84581 112.421 2.15855 98.9384C-0.528711 85.4558 0.850489 71.4807 6.12174 58.7804C11.393 46.0801 20.3195 35.2249 31.7726 27.5877C43.2256 19.9504 56.6907 15.874 70.4651 15.874C79.611 15.874 88.6674 17.6718 97.1171 21.1648C105.567 24.6577 113.244 29.7774 119.711 36.2315C126.179 42.6856 131.309 50.3477 134.809 58.7804C138.309 67.2131 140.11 76.2512 140.11 85.3787Z" fill="#D4EAE3"/>
<path d="M106.814 100.477L93.6842 107.368C93.1543 106.824 93.6266 106.445 93.8043 106.052C95.9478 101.539 98.0428 96.9967 100.302 92.4904C100.479 92.2585 100.605 91.9921 100.672 91.7087C100.738 91.4253 100.744 91.1311 100.689 90.8452C100.633 90.5593 100.518 90.2882 100.35 90.0493C100.182 89.8104 99.9655 89.6092 99.7141 89.4587C96.1311 86.2715 92.6549 82.943 89.1651 79.6335C88.6845 79.1815 88.0041 78.8564 87.7618 77.8947C93.1872 78.5706 98.51 79.1573 103.811 79.9507C105.498 80.2098 106.304 79.861 107.022 78.2484C109.213 73.427 111.599 68.6462 114.173 63.2743C114.934 67.0994 115.592 70.3625 116.227 73.6326C116.642 75.7975 117.098 77.9055 117.408 80.0647C117.415 80.3215 117.474 80.5744 117.58 80.8085C117.687 81.0427 117.84 81.2534 118.03 81.4284C118.219 81.6033 118.443 81.7389 118.686 81.8273C118.929 81.9157 119.188 81.9551 119.447 81.9431C124.527 82.524 129.591 83.2074 134.651 83.8483C135.146 83.8849 135.611 84.1022 135.954 84.4582L128.271 88.688C126.036 89.9099 123.808 91.1539 121.522 92.2944C121.263 92.3865 121.024 92.5285 120.82 92.7123C120.616 92.8962 120.45 93.1182 120.333 93.3657C120.216 93.6132 120.149 93.8813 120.136 94.1545C120.124 94.4278 120.166 94.7008 120.26 94.9579C121.345 100.241 122.318 105.559 122.966 111.131L113.851 102.913C113.166 102.209 112.507 101.477 111.795 100.811C109.458 98.6034 109.456 98.6136 106.811 100.497" fill="#D09F4A"/>
<path d="M52.7725 87.2706L34.6682 108.204C33.3708 107.619 33.9314 106.637 33.9698 105.832C34.5884 96.5157 35.1029 87.1829 35.9275 77.8005C36.076 77.2761 36.1117 76.7267 36.0322 76.1879C35.9528 75.6491 35.7601 75.133 35.4664 74.6731C35.1728 74.2132 34.7849 73.8196 34.3279 73.5181C33.8709 73.2166 33.355 73.0137 32.8137 72.9228C24.3782 69.8132 16.0311 66.3852 7.67348 62.9993C6.52512 62.5396 5.11633 62.4367 4.03125 60.9276C13.9422 58.4113 23.6128 55.8094 33.3885 53.5822C36.5034 52.8852 37.6669 51.729 37.8033 48.4334C38.293 38.5486 39.1502 28.6015 39.9259 17.498C43.8883 23.6392 47.2834 28.8721 50.6446 34.1325C52.8605 37.6184 55.108 40.9778 57.1371 44.5254C57.3263 44.9678 57.6027 45.3682 57.9499 45.7031C58.2972 46.0381 58.7084 46.301 59.1596 46.4763C59.6107 46.6516 60.0926 46.7358 60.5772 46.7241C61.0617 46.7123 61.5391 46.6048 61.9813 46.4079C71.2254 43.9612 80.5123 41.704 89.763 39.3753C90.6509 39.1017 91.6092 39.1639 92.453 39.5498L81.9954 52.1428C78.9473 55.7912 75.9268 59.4733 72.734 63.0148C72.3454 63.3518 72.0276 63.7616 71.7991 64.2206C71.5706 64.6795 71.4357 65.1787 71.4022 65.6894C71.3687 66.2001 71.4373 66.7122 71.604 67.1963C71.7707 67.6805 72.0322 68.1271 72.3736 68.5106C77.9054 76.9684 83.2675 85.5637 88.2383 94.8239L66.7036 86.7217C65.0255 85.9624 63.3727 85.1377 61.6736 84.4627C56.0827 82.2097 56.087 82.2287 52.7811 87.3085" fill="#D09F4A"/>
<path d="M38.8945 97.5598C38.8945 93.118 42.519 89.5173 46.9899 89.5173H95.5624C100.033 89.5173 103.658 93.118 103.658 97.5598V129.73C103.658 134.171 100.033 137.772 95.5624 137.772H46.9899C42.519 137.772 38.8945 134.171 38.8945 129.73V97.5598Z" fill="#006241"/>
<path d="M73.2571 123.698C77.4126 123.698 80.5292 121.389 80.5292 117.402C80.5292 113.708 77.6723 112.491 74.1661 111.316C71.3092 110.392 68.8852 109.469 68.8852 107.034C68.8852 105.062 70.6167 103.76 73.2138 103.76C75.5946 103.76 77.1961 105.062 78.3649 106.405L79.9664 104.768C78.7544 103.089 76.7633 101.62 73.0407 101.62C69.3614 101.62 66.2015 103.676 66.2015 107.286C66.2015 111.148 69.3181 112.449 72.5213 113.498C75.9408 114.59 77.8021 115.387 77.8021 117.78C77.8021 120.13 75.8976 121.473 73.1705 121.473C70.1405 121.473 67.9762 119.962 66.6776 118.073L64.9895 119.92C66.4179 121.599 68.5822 123.698 73.2571 123.698Z" fill="white"/>
<path d="M91.5147 122.309C91.5147 123.034 90.9091 123.621 90.162 123.621C89.415 123.621 88.8094 123.034 88.8094 122.309C88.8094 121.585 89.415 120.998 90.162 120.998C90.9091 120.998 91.5147 121.585 91.5147 122.309Z" fill="white"/>
<path fill-rule="evenodd" clip-rule="evenodd" d="M89.6553 101.62C90.1573 101.765 90.4428 102.277 90.293 102.764L84.6296 123.003C84.4797 123.489 83.9513 123.766 83.4492 123.621C82.9472 123.476 82.6616 122.963 82.8115 122.476L88.4749 102.238C88.6247 101.751 89.1532 101.474 89.6553 101.62Z" fill="white"/>
<path d="M59.5673 106.097C59.5673 105.588 59.143 105.176 58.6195 105.176C58.0961 105.176 57.6718 105.588 57.6718 106.097V111.626H51.9854C51.462 111.626 51.0377 112.039 51.0377 112.548C51.0377 113.057 51.462 113.469 51.9854 113.469H57.6718V118.999C57.6718 119.508 58.0961 119.92 58.6195 119.92C59.143 119.92 59.5673 119.508 59.5673 118.999V113.469H65.2537C65.7771 113.469 66.2014 113.057 66.2014 112.548C66.2014 112.039 65.7771 111.626 65.2537 111.626H59.5673V106.097Z" fill="white"/>
</g>
</g>
<defs>
<clipPath id="clip0_865_9485">
<rect width="140" height="154.808" fill="white"/>
</clipPath>
</defs>
</svg>
